#!OML:ASF H:\Terrain\Patient Classification 1\Walking\liu\liu.ASF
:FULLY-SPECIFIED
:DEGREES
227
root 8.68975 16.2005 -5.26635 10.3859 -4.12 -8.02729
lowerback -9.43182 3.07012 4.65746
upperback -1.51286 3.44937 3.88781
thorax 3.74152 1.74819 1.86577
lowerneck -16.2504 -6.00893 -13.9428
upperneck 15.5496 -7.74756 14.9313
head 8.68632 -3.10642 6.45352
rclavicle 8.39865e-015 1.70955e-014
rhumerus -40.9947 13.7128 -86.918
rradius 51.4543
rwrist -25.1153
rhand -31.8407 -30.0973
rfingers 7.12502
rthumb -5.09496 -60.0161
lclavicle 8.39865e-015 1.70955e-014
lhumerus -51.9756 -8.19301 94.433
lradius 23.9417
lwrist 4.01415
lhand -6.62196 -23.6774
lfingers 7.12502
lthumb 19.2344 5.3914
rfemur 17.4959 7.38369 31.5248
rtibia 3.49861e-014
rfoot -10.6365 7.74158
rtoes -12.4456
lfemur -48.0937 5.51448 -12.425
ltibia 28.4196
lfoot -6.49364 12.7207
ltoes -14.2144
228
root 8.71126 16.1804 -5.09083 10.5413 -4.25697 -7.88168
lowerback -9.47401 3.03854 4.42348
upperback -1.53031 3.43419 3.76369
thorax 3.74062 1.73839 1.86595
lowerneck -16.5732 -5.98771 -13.7751
upperneck 15.5524 -7.72324 14.9453
head 8.73601 -3.07058 6.43071
rclavicle 4.3012e-014 2.3059e-014
rhumerus -41.0645 13.4712 -87.1709
rradius 51.063
rwrist -24.8288
rhand -32.1621 -30.8468
rfingers 7.12502
rthumb -5.40521 -60.7578
lclavicle 4.3012e-014 2.3059e-014
lhumerus -51.68 -7.75668 93.6525
lradius 23.7207
lwrist 2.91064
lhand -7.78689 -23.8973
lfingers 7.12502
lthumb 18.1139 5.27923
rfemur 18.0119 7.34336 31.2372
rtibia -5.08889e-014
rfoot -10.3907 7.77544
rtoes -13.8493
lfemur -48.7445 6.66186 -13.3605
ltibia 29.6748
lfoot -3.8978 11.8269
ltoes -12.9329
229
root 8.73313 16.1365 -4.93444 10.5977 -4.27223 -7.66441
lowerback -9.14861 2.91597 4.04785
upperback -1.68464 3.34458 3.67824
thorax 3.38246 1.68759 1.94825
lowerneck -16.43 -5.92104 -13.7637
upperneck 15.4611 -7.66484 15.0611
head 8.67503 -3.03845 6.47781
rclavicle 2.56929e-014 -8.74653e-015
rhumerus -41.3402 13.2889 -87.421
rradius 50.8185
rwrist -24.6632
rhand -32.0752 -31.9954
rfingers 7.12502
rthumb -5.32131 -61.9086
lclavicle 2.56929e-014 -8.74653e-015
lhumerus -51.7119 -7.55329 93.2552
lradius 23.5084
lwrist 2.33574
lhand -8.83987 -24.1214
lfingers 7.12502
lthumb 17.1006 5.14601
rfemur 18.572 7.15394 30.9132
rtibia -1.27222e-014
rfoot -9.51988 7.79964
rtoes -13.5111
lfemur -49.4055 7.42885 -14.1467
ltibia 31.1055
lfoot -2.06214 11.1303
ltoes -13.8593
230
root 8.75781 16.1232 -4.76791 10.7067 -4.25493 -7.40852
lowerback -9.00761 2.84608 3.68915
upperback -1.84417 3.30767 3.58809
thorax 3.12347 1.6646 2.03484
lowerneck -16.4554 -5.94109 -13.7643
upperneck 15.5841 -7.70263 15.0553
head 8.72666 -3.05495 6.47396
rclavicle -2.75193e-014 -3.45885e-014
rhumerus -41.9921 13.074 -87.5314
rradius 51.0016
rwrist -24.7388
rhand -31.5863 -32.3581
rfingers 7.12502
rthumb -4.8493 -62.2826
lclavicle -2.75193e-014 -3.45885e-014
lhumerus -51.8182 -7.75158 93.2843
lradius 23.3077
lwrist 2.33318
lhand -8.52281 -23.5123
lfingers 7.12502
lthumb 17.4057 5.72839
rfemur 18.9942 6.94847 30.4784
rtibia 6.67916e-014
rfoot -8.6452 7.76185
rtoes -11.2284
lfemur -49.8331 7.67344 -14.6436
ltibia 32.4931
lfoot -0.802911 10.8702
ltoes -13.193
231
root 8.78399 16.1152 -4.57996 10.7384 -4.24792 -7.29712
lowerback -9.15907 2.75961 3.56151
upperback -1.75738 3.19417 3.49657
thorax 3.29691 1.60839 2.00903
lowerneck -16.8159 -5.94839 -13.5955
upperneck 15.6804 -7.71281 15.0077
head 8.81729 -3.03856 6.42618
rclavicle 6.6742e-014 1.66979e-014
rhumerus -42.2366 12.8122 -87.7047
rradius 50.8768
rwrist -24.5979
rhand -31.3287 -33.6964
rfingers 7.12502
rthumb -4.60055 -63.6264
lclavicle 6.6742e-014 1.66979e-014
lhumerus -51.4607 -7.61069 92.9729
lradius 22.9061
lwrist 2.13499
lhand -10.4359 -25.2274
lfingers 7.12502
lthumb 15.5638 4.16638
rfemur 19.5792 6.76816 30.1774
rtibia -7.95139e-014
rfoot -8.0167 7.71269
rtoes -11.1743
lfemur -50.0142 7.9941 -15.0331
ltibia 33.7884
lfoot 0.177712 10.1919
ltoes -12.6218
232
root 8.81275 16.1016 -4.39182 10.7835 -4.202 -6.99124
lowerback -9.37984 2.60327 3.28986
upperback -1.70087 3.00287 3.33649
thorax 3.47433 1.51204 1.98449
lowerneck -17.1681 -5.9419 -13.5464
upperneck 15.8139 -7.70141 15.0668
head 8.92565 -3.00961 6.44283
rclavicle -1.54058e-015 1.98785e-015
rhumerus -42.4425 12.615 -87.9333
rradius 50.5045
rwrist -24.3342
rhand -30.8741 -34.9654
rfingers 7.12502
rthumb -4.1616 -64.9045
lclavicle -1.54058e-015 1.98785e-015
lhumerus -51.0607 -7.24907 92.4267
lradius 22.4055
lwrist 1.53617
lhand -8.04229 -24.365
lfingers 7.12502
lthumb 17.8681 4.83417
rfemur 20.1509 6.52302 29.6798
rtibia -3.18055e-015
rfoot -7.07895 7.62323
rtoes -11.4745
lfemur -50.3618 8.42613 -15.7813
ltibia 35.2038
lfoot 0.843519 9.10221
ltoes -10.9808
